<svg xmlns="http://www.w3.org/2000/svg" xmlns:xlink="http://www.w3.org/1999/xlink" width="39.85" height="40" viewBox="0 0 39.85 40"><defs><style>.a{fill:#c6352e;}.b{fill:#f4d911;}.c{fill:#81b354;}.d{fill:#7baa50;}.e{fill:#fff;}.f{fill:url(#a);}.g{fill:#e7ce12;}.h{fill:#bc332c;}</style><linearGradient id="a" x1="-5.961" y1="7.896" x2="-5.961" y2="6.933" gradientUnits="objectBoundingBox"><stop offset="0" stop-color="#a2c0e6"/><stop offset="1" stop-color="#406cb1"/></linearGradient></defs><path class="a" d="M53.329,0A20.41,20.41,0,0,1,71.3,11.281H52.33s-3.583-.118-6.638,4.229a8.874,8.874,0,0,0-.763,7.4C43.4,20.327,36.823,8.873,36.823,8.873S41.464.473,53.329,0Z" transform="translate(-33.456 0)"/><path class="b" d="M220.86,141.622a20.411,20.411,0,0,1-18.755,9.924l9.489-16.43s1.894-3.044-.342-7.863a8.875,8.875,0,0,0-6.027-4.363c3-.03,16.21,0,16.21,0S226.387,131.112,220.86,141.622Z" transform="translate(-183.625 -111.643)"/><path class="c" d="M2.594,118.035a20.411,20.411,0,0,1,.785-21.2l9.483,16.433s1.689,3.162,6.98,3.635a8.874,8.874,0,0,0,6.792-3.038c-1.476,2.615-8.108,14.037-8.108,14.037S8.931,128.077,2.594,118.035Z" transform="translate(0 -87.976)"/><path class="d" d="M202.1,297.714l2.669-11.136a8.93,8.93,0,0,0,5.393-2.928C208.641,286.335,202.1,297.714,202.1,297.714Z" transform="translate(-183.625 -257.714)"/><path class="e" d="M119.59,131.767a8.889,8.889,0,1,1,8.889,8.889A8.889,8.889,0,0,1,119.59,131.767Z" transform="translate(-108.655 -111.642)"/><path class="f" d="M135.86,146.553a7.4,7.4,0,1,1,7.4,7.4A7.4,7.4,0,0,1,135.86,146.553Z" transform="translate(-123.437 -126.428)"/><path class="g" d="M252.424,122.978,241.434,126.2a8.93,8.93,0,0,0-5.221-3.224C239.3,122.966,252.424,122.978,252.424,122.978Z" transform="translate(-214.614 -111.728)"/><path class="h" d="M44.719,110.676C43.175,108,36.827,97.037,36.827,97.037l8.141,8.053a7.984,7.984,0,0,0-.519,4.179Z" transform="translate(-33.46 -88.164)"/></svg>