<svg xmlns="http://www.w3.org/2000/svg" width="36.901" height="40" viewBox="0 0 36.901 40"><defs><style>.a{fill:#3277bc;}</style></defs><path class="a" d="M12.191,16.618H26.354c0-5.028-2.194-8.457-8.177-8.457-7.07,0-14.26,4.6-17.678,10.341C1.559,8.542,8.7.5,19.453.5,28.669.5,37.4,7.546,37.4,19.26v4.453H12.266c0,6.061,5.288,8.463,10.825,8.463A19.825,19.825,0,0,0,34,29.148v8.49A25.286,25.286,0,0,1,21.784,40.5c-9.759,0-16.648-6.994-16.648-15.691a15.421,15.421,0,0,1,9.849-14.526,10.322,10.322,0,0,0-2.794,6.335Z" transform="translate(-0.5 -0.5)"/></svg>