<svg xmlns="http://www.w3.org/2000/svg" xmlns:xlink="http://www.w3.org/1999/xlink" width="38.746" height="40" viewBox="0 0 38.746 40"><defs><style>.a{fill:url(#a);}.b{fill:url(#b);}.c{fill:url(#c);}.d{fill:url(#d);}.e{fill:url(#e);}.f{fill:url(#f);}.g{fill:url(#g);}.h{fill:url(#h);}.i{fill:url(#i);}.j{fill:url(#j);}.k{fill:url(#k);}.l{fill:url(#l);}</style><linearGradient id="a" x1="0.898" y1="0.155" x2="0.066" y2="0.931" gradientUnits="objectBoundingBox"><stop offset="0.048" stop-color="#fff44f"/><stop offset="0.111" stop-color="#ffe847"/><stop offset="0.225" stop-color="#ffc830"/><stop offset="0.368" stop-color="#ff980e"/><stop offset="0.401" stop-color="#ff8b16"/><stop offset="0.462" stop-color="#ff672a"/><stop offset="0.534" stop-color="#ff3647"/><stop offset="0.705" stop-color="#e31587"/></linearGradient><radialGradient id="b" cx="0.876" cy="-0.13" r="1.285" gradientTransform="translate(0.094) scale(0.812 1)" gradientUnits="objectBoundingBox"><stop offset="0.129" stop-color="#ffbd4f"/><stop offset="0.186" stop-color="#ffac31"/><stop offset="0.247" stop-color="#ff9d17"/><stop offset="0.283" stop-color="#ff980e"/><stop offset="0.403" stop-color="#ff563b"/><stop offset="0.467" stop-color="#ff3750"/><stop offset="0.71" stop-color="#f5156c"/><stop offset="0.782" stop-color="#eb0878"/><stop offset="0.86" stop-color="#e50080"/></radialGradient><radialGradient id="c" cx="0.495" cy="0.396" r="1.285" gradientTransform="translate(0.094) scale(0.812 1)" gradientUnits="objectBoundingBox"><stop offset="0.3" stop-color="#960e18"/><stop offset="0.351" stop-color="#b11927" stop-opacity="0.741"/><stop offset="0.435" stop-color="#db293d" stop-opacity="0.341"/><stop offset="0.497" stop-color="#f5334b" stop-opacity="0.094"/><stop offset="0.53" stop-color="#ff3750" stop-opacity="0"/></radialGradient><radialGradient id="d" cx="0.57" cy="-0.3" r="1.855" gradientTransform="translate(-0.349) scale(1.699 1)" gradientUnits="objectBoundingBox"><stop offset="0.132" stop-color="#fff44f"/><stop offset="0.252" stop-color="#ffdc3e"/><stop offset="0.506" stop-color="#ff9d12"/><stop offset="0.526" stop-color="#ff980e"/></radialGradient><radialGradient id="e" cx="0.232" cy="1.101" r="1.02" gradientTransform="translate(-0.048) scale(1.096 1)" gradientUnits="objectBoundingBox"><stop offset="0.353" stop-color="#3a8ee6"/><stop offset="0.472" stop-color="#5c79f0"/><stop offset="0.669" stop-color="#9059ff"/><stop offset="1" stop-color="#c139e6"/></radialGradient><radialGradient id="f" cx="0.62" cy="0.366" r="0.541" gradientTransform="matrix(1.065, -0.235, 0.301, 1.138, 83.057, -23.154)" gradientUnits="objectBoundingBox"><stop offset="0.206" stop-color="#9059ff" stop-opacity="0"/><stop offset="0.278" stop-color="#8c4ff3" stop-opacity="0.063"/><stop offset="0.747" stop-color="#7716a8" stop-opacity="0.451"/><stop offset="0.975" stop-color="#6e008b" stop-opacity="0.6"/></radialGradient><radialGradient id="g" cx="2.218" cy="-1.033" r="2.913" gradientTransform="translate(-0.003) scale(1.006 1)" gradientUnits="objectBoundingBox"><stop offset="0" stop-color="#ffe226"/><stop offset="0.121" stop-color="#ffdb27"/><stop offset="0.295" stop-color="#ffc82a"/><stop offset="0.502" stop-color="#ffa930"/><stop offset="0.732" stop-color="#ff7e37"/><stop offset="0.792" stop-color="#ff7139"/></radialGradient><radialGradient id="h" cx="0.811" cy="-0.409" r="1.938" gradientTransform="translate(0.08) scale(0.839 1)" gradientUnits="objectBoundingBox"><stop offset="0.113" stop-color="#fff44f"/><stop offset="0.456" stop-color="#ff980e"/><stop offset="0.622" stop-color="#ff5634"/><stop offset="0.716" stop-color="#ff3647"/><stop offset="0.904" stop-color="#e31587"/></radialGradient><radialGradient id="i" cx="0.116" cy="-0.103" r="1.651" gradientTransform="matrix(0.221, 0.994, -1.377, 0.069, -473.822, 167.813)" gradientUnits="objectBoundingBox"><stop offset="0" stop-color="#fff44f"/><stop offset="0.06" stop-color="#ffe847"/><stop offset="0.168" stop-color="#ffc830"/><stop offset="0.304" stop-color="#ff980e"/><stop offset="0.356" stop-color="#ff8b16"/><stop offset="0.455" stop-color="#ff672a"/><stop offset="0.57" stop-color="#ff3647"/><stop offset="0.737" stop-color="#e31587"/></radialGradient><radialGradient id="j" cx="0.195" cy="-0.426" r="2.385" gradientTransform="translate(0.009) scale(0.982 1)" gradientUnits="objectBoundingBox"><stop offset="0.137" stop-color="#fff44f"/><stop offset="0.48" stop-color="#ff980e"/><stop offset="0.592" stop-color="#ff5634"/><stop offset="0.655" stop-color="#ff3647"/><stop offset="0.904" stop-color="#e31587"/></radialGradient><radialGradient id="k" cx="1.599" cy="-0.446" r="3.13" gradientTransform="translate(0.053) scale(0.895 1)" gradientUnits="objectBoundingBox"><stop offset="0.094" stop-color="#fff44f"/><stop offset="0.231" stop-color="#ffe141"/><stop offset="0.509" stop-color="#ffaf1e"/><stop offset="0.626" stop-color="#ff980e"/></radialGradient><linearGradient id="l" x1="0.888" y1="0.151" x2="0.18" y2="0.835" gradientUnits="objectBoundingBox"><stop offset="0.167" stop-color="#fff44f" stop-opacity="0.8"/><stop offset="0.266" stop-color="#fff44f" stop-opacity="0.635"/><stop offset="0.489" stop-color="#fff44f" stop-opacity="0.216"/><stop offset="0.6" stop-color="#fff44f" stop-opacity="0"/></linearGradient></defs><path class="a" d="M37.334,13.419c-.851-2.031-2.552-4.218-3.893-4.9a20.148,20.148,0,0,1,1.966,5.879v.035c-2.186-5.469-5.9-7.67-8.941-12.473-.16-.24-.31-.485-.46-.74-.085-.15-.15-.28-.215-.4a3.528,3.528,0,0,1-.29-.77.05.05,0,0,0-.04-.05.07.07,0,0,0-.05,0v.01c0,.01-.015,0-.015,0V0a14.164,14.164,0,0,0-6.669,10.772,9.706,9.706,0,0,0-5.338,2.061,5.8,5.8,0,0,0-.5-.38,8.991,8.991,0,0,1-.05-4.753,14.359,14.359,0,0,0-4.673,3.612c-.776-.971-.72-4.183-.675-4.853a3.467,3.467,0,0,0-.65.34,14.124,14.124,0,0,0-1.9,1.626,16.931,16.931,0,0,0-1.8,2.176,16.376,16.376,0,0,0-2.6,5.874L.5,16.606c-.035.165-.17,1.021-.19,1.2v.05A18.482,18.482,0,0,0,0,20.529v.1a19.392,19.392,0,0,0,38.5,3.282c.035-.25.06-.5.09-.75a19.943,19.943,0,0,0-1.251-9.741ZM14.985,28.594a2.209,2.209,0,0,0,.265.135l.015.01q-.135-.07-.275-.15ZM35.413,14.425v.005Z" transform="translate(0.01 0.009)"/><path class="b" d="M37.334,21.933c-.851-2.031-2.552-4.218-3.893-4.9a20.148,20.148,0,0,1,1.966,5.879v.04a17.561,17.561,0,0,1-.6,13.088,16.674,16.674,0,0,1-16.025,9.416A19.52,19.52,0,0,1,.17,29.6a8.358,8.358,0,0,1,.14-3.237A14.45,14.45,0,0,0,0,29.038v.1A19.392,19.392,0,0,0,38.5,32.42c.035-.25.06-.5.09-.75a19.943,19.943,0,0,0-1.251-9.741Z" transform="translate(0.01 -8.505)"/><path class="c" d="M37.334,21.933c-.851-2.031-2.552-4.218-3.893-4.9a20.148,20.148,0,0,1,1.966,5.879v.04a17.561,17.561,0,0,1-.6,13.088,16.674,16.674,0,0,1-16.025,9.416A19.52,19.52,0,0,1,.17,29.6a8.358,8.358,0,0,1,.14-3.237A14.45,14.45,0,0,0,0,29.038v.1A19.392,19.392,0,0,0,38.5,32.42c.035-.25.06-.5.09-.75a19.943,19.943,0,0,0-1.251-9.741Z" transform="translate(0.01 -8.505)"/><path class="d" d="M46.616,15.7a1.251,1.251,0,0,1,.12.09,10.557,10.557,0,0,0-1.8-2.352C38.911,7.415,43.359.37,44.109.015V0A14.164,14.164,0,0,0,37.44,10.772c.225-.015.45-.03.68-.03a9.786,9.786,0,0,1,8.5,4.953Z" transform="translate(-18.698 0.005)"/><path class="e" d="M30.1,27.654A4.707,4.707,0,0,1,27.764,29.8c-5.514,0-6.4,3.332-6.4,3.332a8.207,8.207,0,0,0,4.563,6.354l.33.15q.285.125.57.235a8.62,8.62,0,0,0,2.522.49c9.666.45,11.537-11.557,4.563-15.045a6.694,6.694,0,0,1,4.673,1.141,9.786,9.786,0,0,0-8.5-4.953c-.23,0-.45.01-.68.025a9.706,9.706,0,0,0-5.338,2.061c.3.25.63.58,1.336,1.276,1.316,1.3,4.688,2.637,4.7,2.8Z" transform="translate(-10.663 -10.738)"/><path class="f" d="M30.1,27.654A4.707,4.707,0,0,1,27.764,29.8c-5.514,0-6.4,3.332-6.4,3.332a8.207,8.207,0,0,0,4.563,6.354l.33.15q.285.125.57.235a8.62,8.62,0,0,0,2.522.49c9.666.45,11.537-11.557,4.563-15.045a6.694,6.694,0,0,1,4.673,1.141,9.786,9.786,0,0,0-8.5-4.953c-.23,0-.45.01-.68.025a9.706,9.706,0,0,0-5.338,2.061c.3.25.63.58,1.336,1.276,1.316,1.3,4.688,2.637,4.7,2.8Z" transform="translate(-10.663 -10.738)"/><path class="g" d="M20.653,19.878c.15.1.285.185.4.265A8.991,8.991,0,0,1,21,15.39,14.359,14.359,0,0,0,16.33,19c.1,0,2.9-.05,4.323.871Z" transform="translate(-8.15 -7.685)"/><path class="h" d="M.241,27.554A19.522,19.522,0,0,0,18.853,43.4a16.674,16.674,0,0,0,16.02-9.416,17.561,17.561,0,0,0,.6-13.088v-.04l.01.035c.68,4.493-1.6,8.841-5.173,11.783L30.3,32.7c-6.954,5.669-13.609,3.422-14.96,2.5q-.15-.065-.285-.14a8.816,8.816,0,0,1-5.373-8.806,4.978,4.978,0,0,1-4.593-2.887,7.315,7.315,0,0,1,7.13-.285,9.656,9.656,0,0,0,7.275.285c-.01-.16-3.382-1.5-4.7-2.8-.7-.69-1.031-1.021-1.331-1.271a5.8,5.8,0,0,0-.5-.38c-.115-.08-.24-.165-.4-.265-1.411-.921-4.223-.871-4.318-.871h-.01c-.765-.971-.715-4.183-.67-4.853a3.467,3.467,0,0,0-.65.34A14.124,14.124,0,0,0,5,14.9a16.931,16.931,0,0,0-1.816,2.171,16.376,16.376,0,0,0-2.6,5.874,14.472,14.472,0,0,0-.36,4.613Z" transform="translate(-0.056 -6.456)"/><path class="i" d="M49.313,13.434a10.557,10.557,0,0,1,1.8,2.352c.1.085.2.165.29.24,4.4,4.053,2.1,9.781,1.926,10.192,3.567-2.942,5.854-7.29,5.168-11.783-2.2-5.469-5.914-7.67-8.956-12.473-.15-.24-.3-.485-.45-.74-.085-.15-.15-.28-.215-.4a3.528,3.528,0,0,1-.3-.776.05.05,0,0,0-.04-.05.07.07,0,0,0-.05,0v.01c0,.01-.015,0-.015,0-.75.36-5.2,7.4.831,13.429Z" transform="translate(-23.071 0.009)"/><path class="j" d="M43.553,30.52a3.707,3.707,0,0,0-.29-.24l-.12-.09a6.694,6.694,0,0,0-4.678-1.136c6.974,3.492,5.1,15.51-4.563,15.05a8.62,8.62,0,0,1-2.517-.485q-.285-.1-.57-.23l-.325-.15h.015c1.351.921,8.005,3.172,14.97-2.5l.01-.02c.175-.4,2.477-6.139-1.921-10.187Z" transform="translate(-15.225 -14.485)"/><path class="k" d="M15.689,38.193s.9-3.332,6.4-3.332a4.713,4.713,0,0,0,2.342-2.151,9.656,9.656,0,0,1-7.285-.28,7.315,7.315,0,0,0-7.13.285,4.978,4.978,0,0,0,4.6,2.882c-.365,3.172,1.311,6.869,5.368,8.806.09.05.175.09.265.135a8.2,8.2,0,0,1-4.568-6.354Z" transform="translate(-4.997 -15.804)"/><path class="l" d="M37.324,13.419c-.851-2.031-2.552-4.218-3.893-4.9A20.148,20.148,0,0,1,35.4,14.395v.035c-2.186-5.469-5.9-7.67-8.941-12.473-.16-.24-.31-.485-.46-.74-.085-.15-.15-.28-.215-.4a3.528,3.528,0,0,1-.29-.77.05.05,0,0,0-.04-.05.07.07,0,0,0-.05,0v.01c0,.01-.015,0-.015,0V0a14.164,14.164,0,0,0-6.669,10.772c.225-.015.45-.03.68-.03a9.786,9.786,0,0,1,8.5,4.953A6.694,6.694,0,0,0,23.22,14.56c6.974,3.492,5.1,15.51-4.563,15.05a8.621,8.621,0,0,1-2.522-.485q-.285-.1-.57-.23l-.33-.15h.015q-.135-.065-.275-.14a2.209,2.209,0,0,0,.265.135,8.2,8.2,0,0,1-4.568-6.354s.9-3.327,6.4-3.327a4.713,4.713,0,0,0,2.342-2.151c-.01-.15-3.382-1.5-4.7-2.792-.7-.7-1.036-1.026-1.331-1.276a5.8,5.8,0,0,0-.5-.38,8.991,8.991,0,0,1-.05-4.753A14.359,14.359,0,0,0,8.16,11.318c-.776-.971-.72-4.183-.675-4.853a3.467,3.467,0,0,0-.65.34,14.124,14.124,0,0,0-1.9,1.626,16.931,16.931,0,0,0-1.8,2.176,16.376,16.376,0,0,0-2.6,5.874l-.04.125c-.035.165-.2,1.036-.225,1.221a22.564,22.564,0,0,0-.285,2.7v.1a19.392,19.392,0,0,0,38.5,3.282c.035-.25.06-.5.09-.75a19.943,19.943,0,0,0-1.251-9.741Zm-1.926,1v.015Z" transform="translate(0.02 0.009)"/></svg>