<svg xmlns="http://www.w3.org/2000/svg" xmlns:xlink="http://www.w3.org/1999/xlink" width="41" height="41" viewBox="0 0 41 41"><defs><style>.a{stroke:#707070;opacity:0.1;fill:url(#a);}.b{fill:url(#b);}.c{fill:#f3f3f3;}.d{fill:#fff;}.e{fill:#e2e2e2;}.f{fill:url(#c);}.g{fill:rgba(0,0,0,0.05);}.h{fill:#cd151e;}.i{fill:#fa5153;}.j{fill:#acacac;}.k{fill:#eee;}.l{filter:url(#d);}</style><linearGradient id="a" x1="0.5" y1="1" x2="0.5" gradientUnits="objectBoundingBox"><stop offset="0.25" stop-color="#dbdbda"/><stop offset="1" stop-color="#fff"/></linearGradient><radialGradient id="b" cx="0.57" cy="0.39" r="0.61" gradientUnits="objectBoundingBox"><stop offset="0" stop-color="#2abce1"/><stop offset="0.114" stop-color="#2abbe1"/><stop offset="1" stop-color="#3375f8"/></radialGradient><linearGradient id="c" x1="0.491" y1="0.357" x2="0.257" y2="0.776" gradientUnits="objectBoundingBox"><stop offset="0" stop-opacity="0"/><stop offset="1" stop-opacity="0.2"/></linearGradient><filter id="d" x="3.054" y="3.642" width="35.949" height="36.627" filterUnits="userSpaceOnUse"><feOffset dy="1" input="SourceAlpha"/><feGaussianBlur stdDeviation="2" result="e"/><feFlood/><feComposite operator="in" in2="e"/><feComposite in="SourceGraphic"/></filter></defs><g transform="translate(0.5 0.5)"><circle class="a" cx="20" cy="20" r="20"/><ellipse class="b" cx="18.258" cy="18.258" rx="18.258" ry="18.258" transform="translate(1.492 1.48)"/><g transform="translate(1.6 1.465)"><path class="c" d="M113.284,9.177a.224.224,0,0,1-.231-.216V5.738a.232.232,0,0,1,.463,0V8.961a.234.234,0,0,1-.231.216Z" transform="translate(-95.103 -4.72)"/><path class="d" d="M113.2,9.111a.241.241,0,0,1-.247-.231V5.656a.247.247,0,0,1,.493,0V8.879A.251.251,0,0,1,113.2,9.111Zm0-3.655a.218.218,0,0,0-.216.2V8.879a.208.208,0,0,0,.216.2.218.218,0,0,0,.216-.2V5.656A.23.23,0,0,0,113.2,5.456Z" transform="translate(-95.022 -4.638)"/><path class="c" d="M123.054,7.766a.234.234,0,0,1-.216-.231l.108-1.434a.225.225,0,0,1,.247-.2.234.234,0,0,1,.216.231L123.3,7.566a.225.225,0,0,1-.247.2Z" transform="translate(-103.331 -5.037)"/><path class="d" d="M122.972,7.7a.25.25,0,0,1-.231-.247l.108-1.434a.242.242,0,0,1,.262-.216.251.251,0,0,1,.231.247l-.108,1.434A.232.232,0,0,1,122.972,7.7Zm.139-1.866a.206.206,0,0,0-.216.185l-.108,1.434a.217.217,0,0,0,.2.216.205.205,0,0,0,.216-.185l.108-1.434a.23.23,0,0,0-.2-.216Z" transform="translate(-103.249 -4.956)"/><path class="c" d="M130.472,11.21a.237.237,0,0,1-.185-.262l.632-3.161a.215.215,0,0,1,.262-.17.237.237,0,0,1,.185.262l-.632,3.161a.23.23,0,0,1-.262.17Z" transform="translate(-109.592 -6.476)"/><path class="d" d="M130.39,11.148a.251.251,0,0,1-.2-.278l.632-3.161a.248.248,0,0,1,.293-.185.252.252,0,0,1,.2.278l-.632,3.161A.261.261,0,0,1,130.39,11.148Zm.725-3.593a.221.221,0,0,0-.247.154l-.632,3.161a.219.219,0,0,0,.17.247.222.222,0,0,0,.247-.154l.632-3.161A.223.223,0,0,0,131.115,7.555Z" transform="translate(-109.51 -6.399)"/><path class="c" d="M142.154,11.853a.23.23,0,0,1-.17-.278l.386-1.388a.22.22,0,0,1,.277-.154.23.23,0,0,1,.17.278l-.386,1.388a.221.221,0,0,1-.278.154Z" transform="translate(-119.424 -8.507)"/><path class="d" d="M142.124,11.793a.234.234,0,0,1-.17-.293l.386-1.388a.246.246,0,0,1,.293-.17.234.234,0,0,1,.17.293l-.386,1.388a.239.239,0,0,1-.293.17Zm.509-1.8a.215.215,0,0,0-.262.139l-.385,1.388a.2.2,0,0,0,.154.247.214.214,0,0,0,.262-.139l.386-1.388a.221.221,0,0,0-.154-.247Z" transform="translate(-119.394 -8.431)"/><path class="c" d="M147.087,17.2a.221.221,0,0,1-.123-.293l1.234-2.976a.214.214,0,0,1,.293-.108.22.22,0,0,1,.124.293L147.38,17.09a.214.214,0,0,1-.293.108Z" transform="translate(-123.601 -11.677)"/><path class="d" d="M147.016,17.168a.24.24,0,0,1-.139-.308l1.234-2.976a.245.245,0,0,1,.324-.123.24.24,0,0,1,.139.308l-1.234,2.976A.242.242,0,0,1,147.016,17.168Zm1.4-3.377a.209.209,0,0,0-.278.108l-1.234,2.976a.2.2,0,0,0,.123.262.209.209,0,0,0,.278-.108l1.234-2.976a.219.219,0,0,0-.123-.262Z" transform="translate(-123.53 -11.632)"/><path class="c" d="M160.245,20.022a.232.232,0,0,1-.108-.293l.648-1.28a.225.225,0,0,1,.309-.093.232.232,0,0,1,.108.293l-.648,1.28a.225.225,0,0,1-.308.093Z" transform="translate(-134.677 -15.489)"/><path class="d" d="M160.2,19.877a.236.236,0,0,1-.108-.324l.648-1.28a.241.241,0,1,1,.432.216l-.648,1.28a.236.236,0,0,1-.324.108Zm.848-1.681a.2.2,0,0,0-.278.092l-.648,1.28a.228.228,0,0,0,.092.278.2.2,0,0,0,.278-.092l.648-1.28A.228.228,0,0,0,161.044,18.2Z" transform="translate(-134.628 -15.328)"/><path class="c" d="M162.295,27.066a.213.213,0,0,1-.062-.308l1.789-2.668a.221.221,0,0,1,.308-.062.213.213,0,0,1,.062.308L162.6,27A.209.209,0,0,1,162.295,27.066Z" transform="translate(-136.419 -20.25)"/><path class="d" d="M162.274,26.964a.266.266,0,0,1-.077-.339l1.789-2.668a.244.244,0,0,1,.339-.062.267.267,0,0,1,.077.339L162.613,26.9A.246.246,0,0,1,162.274,26.964Zm2.035-3.038a.216.216,0,0,0-.293.046l-1.789,2.668a.2.2,0,0,0,.062.277.216.216,0,0,0,.293-.046l1.789-2.652A.219.219,0,0,0,164.309,23.926Z" transform="translate(-136.398 -20.133)"/><path class="c" d="M176.516,31.72a.223.223,0,0,1-.046-.308l.894-1.126a.225.225,0,0,1,.355.278l-.894,1.126a.22.22,0,0,1-.308.031Z" transform="translate(-148.388 -25.475)"/><path class="d" d="M176.4,31.594a.244.244,0,0,1-.046-.339l.894-1.126a.229.229,0,0,1,.339-.031.243.243,0,0,1,.046.339l-.894,1.126A.229.229,0,0,1,176.4,31.594Zm1.156-1.465a.2.2,0,0,0-.293.031l-.894,1.126a.219.219,0,0,0,.046.293.2.2,0,0,0,.293-.031l.894-1.126a.216.216,0,0,0-.046-.293Z" transform="translate(-148.283 -25.333)"/><path class="c" d="M175.656,40.31a.206.206,0,0,1,0-.308l2.282-2.267a.218.218,0,0,1,.308.308L175.98,40.31A.224.224,0,0,1,175.656,40.31Z" transform="translate(-147.682 -31.752)"/><path class="d" d="M175.558,40.214a.242.242,0,0,1,0-.339l2.282-2.267a.24.24,0,1,1,.339.339L175.9,40.214a.242.242,0,0,1-.339,0Zm2.606-2.591a.214.214,0,0,0-.293,0l-2.282,2.267a.207.207,0,0,0,.293.293l2.282-2.267A.214.214,0,0,0,178.165,37.623Z" transform="translate(-147.601 -31.64)"/><path class="c" d="M190.257,46.7a.219.219,0,0,1,.015-.308l1.095-.925a.224.224,0,0,1,.293.339l-1.095.925A.22.22,0,0,1,190.257,46.7Z" transform="translate(-159.971 -38.263)"/><path class="d" d="M190.128,46.572a.241.241,0,0,1,.015-.339l1.095-.925a.231.231,0,0,1,.339.031.241.241,0,0,1-.015.339l-1.1.925a.231.231,0,0,1-.339-.031Zm1.419-1.218a.216.216,0,0,0-.293-.031l-1.1.925a.213.213,0,0,0,.277.324l1.1-.925A.2.2,0,0,0,191.547,45.354Z" transform="translate(-159.857 -38.121)"/><path class="c" d="M186.452,56.178a.209.209,0,0,1,.062-.308L189.2,54.08a.235.235,0,0,1,.308.062.209.209,0,0,1-.062.308l-2.683,1.789A.242.242,0,0,1,186.452,56.178Z" transform="translate(-156.783 -45.522)"/><path class="d" d="M186.355,55.962a.247.247,0,0,1,.062-.339l2.683-1.789a.237.237,0,0,1,.339.077.246.246,0,0,1-.062.339l-2.683,1.789a.237.237,0,0,1-.339-.077Zm3.053-2.02a.2.2,0,0,0-.277-.062l-2.683,1.789a.212.212,0,0,0,.231.355l2.683-1.789A.218.218,0,0,0,189.408,53.942Z" transform="translate(-156.701 -45.307)"/><path class="c" d="M200.947,63.938a.225.225,0,0,1,.077-.308l1.249-.709a.229.229,0,0,1,.308.092.225.225,0,0,1-.077.308l-1.249.709a.23.23,0,0,1-.308-.093Z" transform="translate(-168.979 -52.958)"/><path class="d" d="M200.85,63.953a.239.239,0,0,1,.077-.324l1.249-.709a.248.248,0,0,1,.324.092.239.239,0,0,1-.077.324l-1.249.709A.248.248,0,0,1,200.85,63.953Zm1.634-.925a.193.193,0,0,0-.277-.077l-1.249.709a.221.221,0,0,0-.077.277.193.193,0,0,0,.278.077l1.249-.709A.212.212,0,0,0,202.484,63.028Z" transform="translate(-168.898 -52.958)"/><path class="c" d="M194.529,74.2a.216.216,0,0,1,.123-.293l2.976-1.234a.234.234,0,0,1,.293.123.216.216,0,0,1-.123.293l-2.976,1.234A.221.221,0,0,1,194.529,74.2Z" transform="translate(-163.595 -61.168)"/><path class="d" d="M194.432,74.132a.256.256,0,0,1,.123-.324l2.976-1.234a.24.24,0,0,1,.308.139.255.255,0,0,1-.123.324l-2.976,1.234a.24.24,0,0,1-.308-.139Zm3.377-1.4a.22.22,0,0,0-.262-.123l-2.976,1.234a.209.209,0,0,0-.108.278.219.219,0,0,0,.262.123l2.976-1.234A.209.209,0,0,0,197.81,72.729Z" transform="translate(-163.514 -61.086)"/><path class="c" d="M208.2,83.205a.223.223,0,0,1,.139-.293l1.357-.447a.219.219,0,0,1,.278.139.223.223,0,0,1-.139.293l-1.357.447a.212.212,0,0,1-.278-.139Z" transform="translate(-175.092 -69.403)"/><path class="d" d="M208.1,83.221a.235.235,0,0,1,.154-.308l1.357-.447a.248.248,0,0,1,.309.154.236.236,0,0,1-.154.308l-1.357.447A.263.263,0,0,1,208.1,83.221Zm1.789-.586a.215.215,0,0,0-.262-.139l-1.357.447a.206.206,0,0,0-.123.262.214.214,0,0,0,.262.139l1.357-.447a.213.213,0,0,0,.123-.262Z" transform="translate(-175.011 -69.404)"/><path class="c" d="M199.527,94.041a.208.208,0,0,1,.17-.262l3.161-.617a.225.225,0,0,1,.262.185.208.208,0,0,1-.17.262l-3.161.617a.228.228,0,0,1-.262-.185Z" transform="translate(-167.806 -78.405)"/><path class="d" d="M199.337,93.878a.248.248,0,0,1,.185-.293l3.161-.617a.239.239,0,0,1,.277.2.248.248,0,0,1-.185.293l-3.161.617a.239.239,0,0,1-.277-.2Zm3.593-.694a.207.207,0,0,0-.231-.17l-3.161.617a.2.2,0,0,0-.154.247.207.207,0,0,0,.231.17l3.161-.617A.208.208,0,0,0,202.93,93.184Z" transform="translate(-167.648 -78.242)"/><path class="c" d="M211.953,103.967a.213.213,0,0,1,.185-.247l1.419-.17a.225.225,0,0,1,.247.2.213.213,0,0,1-.185.247l-1.419.17a.234.234,0,0,1-.247-.2Z" transform="translate(-178.258 -87.143)"/><path class="d" d="M211.857,103.8a.246.246,0,0,1,.2-.278l1.419-.17a.24.24,0,0,1,.262.216.246.246,0,0,1-.2.278l-1.419.17A.24.24,0,0,1,211.857,103.8Zm1.866-.216a.219.219,0,0,0-.231-.185l-1.419.17a.207.207,0,0,0-.17.231.219.219,0,0,0,.231.185l1.419-.17a.207.207,0,0,0,.17-.231Z" transform="translate(-178.178 -86.98)"/><path class="c" d="M201.113,114.35a.224.224,0,0,1,.216-.231h3.223a.232.232,0,0,1,0,.463h-3.223A.224.224,0,0,1,201.113,114.35Z" transform="translate(-169.146 -96.03)"/><path class="d" d="M201.016,114.269a.241.241,0,0,1,.231-.247h3.223a.247.247,0,0,1,0,.493h-3.223A.241.241,0,0,1,201.016,114.269Zm3.655.015a.218.218,0,0,0-.2-.216h-3.223a.208.208,0,0,0-.2.216.218.218,0,0,0,.2.216h3.223a.23.23,0,0,0,.2-.216Z" transform="translate(-169.064 -95.949)"/><path class="c" d="M211.865,124.216A.234.234,0,0,1,212.1,124l1.434.108a.225.225,0,0,1,.2.247.234.234,0,0,1-.231.216l-1.434-.108a.25.25,0,0,1-.2-.247Z" transform="translate(-178.186 -104.338)"/><path class="d" d="M211.769,124.134a.25.25,0,0,1,.247-.231l1.434.108a.242.242,0,0,1,.216.262.25.25,0,0,1-.247.231l-1.434-.108A.265.265,0,0,1,211.769,124.134Zm1.881.139a.2.2,0,0,0-.185-.216l-1.434-.108a.217.217,0,0,0-.216.2.2.2,0,0,0,.185.216l1.434.108A.23.23,0,0,0,213.65,124.273Z" transform="translate(-178.105 -104.257)"/><path class="c" d="M199.359,131.44a.237.237,0,0,1,.262-.185l3.161.632a.214.214,0,0,1,.17.262.237.237,0,0,1-.262.185l-3.161-.632a.23.23,0,0,1-.17-.262Z" transform="translate(-167.669 -110.437)"/><path class="d" d="M199.262,131.358a.252.252,0,0,1,.278-.2l3.161.632a.248.248,0,0,1,.185.293.251.251,0,0,1-.277.2l-3.161-.632a.261.261,0,0,1-.185-.293Zm3.593.725a.221.221,0,0,0-.154-.247l-3.161-.632a.219.219,0,0,0-.247.17.221.221,0,0,0,.154.247l3.161.632A.223.223,0,0,0,202.855,132.083Z" transform="translate(-167.587 -110.355)"/><path class="c" d="M208.046,143.123a.23.23,0,0,1,.277-.17l1.388.385a.221.221,0,0,1,.154.278.23.23,0,0,1-.278.17L208.2,143.4a.221.221,0,0,1-.154-.278Z" transform="translate(-174.968 -120.27)"/><path class="d" d="M207.955,143.093a.234.234,0,0,1,.293-.17l1.388.385a.246.246,0,0,1,.17.293.234.234,0,0,1-.293.17l-1.388-.386a.238.238,0,0,1-.17-.293Zm1.8.509a.215.215,0,0,0-.139-.262l-1.388-.386a.2.2,0,0,0-.247.154.215.215,0,0,0,.139.262l1.388.386A.221.221,0,0,0,209.759,143.6Z" transform="translate(-174.893 -120.24)"/><path class="c" d="M194.335,147.958a.22.22,0,0,1,.293-.123l2.976,1.234a.234.234,0,0,1,.123.293.221.221,0,0,1-.293.124l-2.976-1.234a.22.22,0,0,1-.123-.293Z" transform="translate(-163.432 -124.364)"/><path class="d" d="M194.238,147.791a.24.24,0,0,1,.308-.139l2.976,1.234a.245.245,0,0,1,.123.324.24.24,0,0,1-.309.139l-2.976-1.234A.256.256,0,0,1,194.238,147.791Zm3.377,1.4a.209.209,0,0,0-.108-.278l-2.976-1.234a.2.2,0,0,0-.262.123.209.209,0,0,0,.108.278l2.976,1.234A.206.206,0,0,0,197.615,149.194Z" transform="translate(-163.35 -124.212)"/><path class="c" d="M200.579,161.116a.232.232,0,0,1,.293-.108l1.28.648a.221.221,0,0,1,.093.308.232.232,0,0,1-.293.108l-1.28-.648A.23.23,0,0,1,200.579,161.116Z" transform="translate(-168.673 -135.441)"/><path class="d" d="M200.485,160.97a.236.236,0,0,1,.324-.108l1.28.648a.241.241,0,0,1-.216.432l-1.28-.648A.232.232,0,0,1,200.485,160.97Zm1.666.848a.2.2,0,0,0-.093-.277l-1.28-.648a.228.228,0,0,0-.278.092.2.2,0,0,0,.092.278l1.28.648A.2.2,0,0,0,202.15,161.819Z" transform="translate(-168.594 -135.31)"/><path class="c" d="M186.258,163.07a.211.211,0,0,1,.308-.062l2.683,1.789a.221.221,0,0,1,.062.308.211.211,0,0,1-.309.062l-2.683-1.789A.213.213,0,0,1,186.258,163.07Z" transform="translate(-156.619 -137.101)"/><path class="d" d="M186.138,162.952a.267.267,0,0,1,.339-.077l2.683,1.789a.244.244,0,0,1,.062.339.266.266,0,0,1-.339.077l-2.683-1.789A.233.233,0,0,1,186.138,162.952Zm3.038,2.035a.216.216,0,0,0-.046-.293l-2.683-1.789a.2.2,0,0,0-.278.062.216.216,0,0,0,.046.293l2.683,1.789a.2.2,0,0,0,.278-.062Z" transform="translate(-156.515 -136.998)"/><path class="c" d="M189.808,177.194a.222.222,0,0,1,.308-.046l1.126.879a.22.22,0,0,1,.031.309.223.223,0,0,1-.308.046l-1.126-.879A.22.22,0,0,1,189.808,177.194Z" transform="translate(-159.599 -148.989)"/><path class="d" d="M189.717,177.073a.243.243,0,0,1,.339-.046l1.126.879a.242.242,0,0,1-.293.386l-1.126-.879A.244.244,0,0,1,189.717,177.073Zm1.48,1.157a.2.2,0,0,0-.031-.293l-1.126-.879a.219.219,0,0,0-.293.046.2.2,0,0,0,.031.293l1.126.879a.218.218,0,0,0,.293-.046Z" transform="translate(-159.524 -148.884)"/><path class="c" d="M175.329,176.334a.206.206,0,0,1,.309,0l2.282,2.267a.218.218,0,0,1,0,.309.206.206,0,0,1-.308,0l-2.282-2.267A.235.235,0,0,1,175.329,176.334Z" transform="translate(-147.417 -148.283)"/><path class="d" d="M175.206,176.236a.242.242,0,0,1,.339,0l2.282,2.267a.24.24,0,0,1-.339.339l-2.282-2.267A.218.218,0,0,1,175.206,176.236Zm2.591,2.575a.214.214,0,0,0,0-.293l-2.282-2.267a.207.207,0,0,0-.293.293l2.282,2.267a.189.189,0,0,0,.293,0Z" transform="translate(-147.295 -148.201)"/><path class="c" d="M176.082,190.838a.219.219,0,0,1,.309.015l.941,1.079a.224.224,0,0,1-.339.293l-.941-1.079A.222.222,0,0,1,176.082,190.838Z" transform="translate(-148.032 -160.49)"/><path class="d" d="M175.959,190.806a.242.242,0,0,1,.339.015l.941,1.079a.231.231,0,0,1-.031.339.242.242,0,0,1-.339-.015l-.941-1.079a.242.242,0,0,1,.031-.339Zm1.234,1.4a.216.216,0,0,0,.031-.293l-.941-1.08a.213.213,0,0,0-.324.277l.941,1.08a.2.2,0,0,0,.293.015Z" transform="translate(-147.924 -160.458)"/><path class="c" d="M162.06,187.227a.209.209,0,0,1,.309.062l1.789,2.668a.236.236,0,0,1-.062.308.209.209,0,0,1-.308-.062L162,187.535a.235.235,0,0,1,.062-.308Z" transform="translate(-136.23 -157.465)"/><path class="d" d="M161.927,187.13a.246.246,0,0,1,.339.062l1.789,2.668a.237.237,0,0,1-.077.339.246.246,0,0,1-.339-.062l-1.789-2.668a.235.235,0,0,1,.077-.339Zm2.036,3.038a.2.2,0,0,0,.062-.278l-1.789-2.668a.213.213,0,0,0-.293-.046.2.2,0,0,0-.062.278l1.789,2.668a.233.233,0,0,0,.293.046Z" transform="translate(-136.098 -157.383)"/><path class="c" d="M159.923,201.624a.225.225,0,0,1,.308.077l.709,1.249a.23.23,0,0,1-.093.308.224.224,0,0,1-.308-.077l-.709-1.249a.245.245,0,0,1,.092-.308Z" transform="translate(-134.417 -169.58)"/><path class="d" d="M159.87,201.528a.239.239,0,0,1,.324.077l.709,1.249a.234.234,0,0,1-.092.324.239.239,0,0,1-.324-.077l-.709-1.249a.237.237,0,0,1,.092-.324Zm.925,1.635a.206.206,0,0,0,.077-.278l-.709-1.249a.222.222,0,0,0-.278-.077.206.206,0,0,0-.077.278l.709,1.249a.2.2,0,0,0,.277.077Z" transform="translate(-134.364 -169.499)"/><path class="c" d="M146.9,195.3a.222.222,0,0,1,.293.108l1.249,2.976a.234.234,0,0,1-.123.293.227.227,0,0,1-.293-.108l-1.249-2.976A.234.234,0,0,1,146.9,195.3Z" transform="translate(-123.449 -164.276)"/><path class="d" d="M146.823,195.207a.256.256,0,0,1,.324.123l1.249,2.976a.24.24,0,0,1-.139.308.255.255,0,0,1-.324-.123l-1.249-2.976A.252.252,0,0,1,146.823,195.207Zm1.4,3.377a.2.2,0,0,0,.108-.262l-1.249-2.976a.209.209,0,0,0-.277-.108.2.2,0,0,0-.108.262l1.249,2.976A.214.214,0,0,0,148.227,198.585Z" transform="translate(-123.368 -164.196)"/><path class="c" d="M142.077,209.072a.223.223,0,0,1,.293.139l.447,1.357a.219.219,0,0,1-.139.278.223.223,0,0,1-.293-.139l-.447-1.357a.213.213,0,0,1,.139-.278Z" transform="translate(-119.378 -175.856)"/><path class="d" d="M141.938,208.974a.24.24,0,0,1,.308.139l.447,1.357a.248.248,0,0,1-.154.308.24.24,0,0,1-.308-.139l-.447-1.357A.262.262,0,0,1,141.938,208.974Zm.6,1.773a.214.214,0,0,0,.139-.262l-.447-1.357a.206.206,0,0,0-.262-.123.214.214,0,0,0-.139.262l.447,1.357a.195.195,0,0,0,.262.123Z" transform="translate(-119.254 -175.773)"/><path class="c" d="M130.471,200.3a.208.208,0,0,1,.262.17l.648,3.161a.225.225,0,0,1-.185.262.208.208,0,0,1-.262-.17l-.648-3.161a.247.247,0,0,1,.185-.262Z" transform="translate(-109.591 -168.489)"/><path class="d" d="M130.446,200.209a.248.248,0,0,1,.293.185l.648,3.161a.232.232,0,0,1-.185.277.248.248,0,0,1-.293-.185l-.648-3.161a.229.229,0,0,1,.185-.277Zm.725,3.593a.214.214,0,0,0,.17-.247l-.648-3.161a.2.2,0,0,0-.247-.154.214.214,0,0,0-.17.247l.648,3.161a.221.221,0,0,0,.247.154Z" transform="translate(-109.566 -168.411)"/><path class="c" d="M123.03,212.921a.237.237,0,0,1,.262.185l.185,1.419a.225.225,0,0,1-.2.247.237.237,0,0,1-.262-.185l-.185-1.419A.225.225,0,0,1,123.03,212.921Z" transform="translate(-103.322 -179.103)"/><path class="d" d="M122.948,212.825a.246.246,0,0,1,.278.2l.185,1.419a.24.24,0,0,1-.216.262.246.246,0,0,1-.278-.2l-.185-1.419A.24.24,0,0,1,122.948,212.825Zm.231,1.85a.219.219,0,0,0,.185-.231l-.185-1.419a.207.207,0,0,0-.231-.17.219.219,0,0,0-.185.231l.185,1.419A.207.207,0,0,0,123.179,214.676Z" transform="translate(-103.24 -179.023)"/><path class="c" d="M112.9,202.081a.224.224,0,0,1,.231.216v3.223a.232.232,0,0,1-.463,0V202.3A.234.234,0,0,1,112.9,202.081Z" transform="translate(-94.778 -169.99)"/><path class="d" d="M112.816,201.984a.241.241,0,0,1,.247.231v3.223a.247.247,0,0,1-.493,0v-3.223A.251.251,0,0,1,112.816,201.984Zm0,3.655a.218.218,0,0,0,.216-.2v-3.223a.208.208,0,0,0-.216-.2.218.218,0,0,0-.216.2v3.223A.23.23,0,0,0,112.816,205.639Z" transform="translate(-94.696 -169.909)"/><path class="c" d="M102.558,212.922a.234.234,0,0,1,.216.231l-.108,1.434a.225.225,0,0,1-.247.2.235.235,0,0,1-.216-.231l.108-1.434A.225.225,0,0,1,102.558,212.922Z" transform="translate(-85.98 -179.104)"/><path class="d" d="M102.476,212.825a.25.25,0,0,1,.231.247l-.108,1.434a.242.242,0,0,1-.262.216.251.251,0,0,1-.231-.247l.108-1.434A.232.232,0,0,1,102.476,212.825Zm-.139,1.866a.206.206,0,0,0,.216-.185l.108-1.434a.217.217,0,0,0-.2-.216.205.205,0,0,0-.216.185l-.108,1.434a.23.23,0,0,0,.2.216Z" transform="translate(-85.899 -179.023)"/><path class="c" d="M92.431,200.328a.237.237,0,0,1,.185.262l-.632,3.161a.214.214,0,0,1-.262.17.237.237,0,0,1-.185-.262l.632-3.161A.23.23,0,0,1,92.431,200.328Z" transform="translate(-77.01 -168.514)"/><path class="d" d="M92.268,200.23a.252.252,0,0,1,.2.278l-.632,3.161a.248.248,0,0,1-.293.185.252.252,0,0,1-.2-.278l.632-3.161a.261.261,0,0,1,.293-.185Zm-.725,3.593a.221.221,0,0,0,.247-.154l.632-3.161a.218.218,0,0,0-.17-.247.221.221,0,0,0-.247.154l-.632,3.161A.223.223,0,0,0,91.543,203.823Z" transform="translate(-76.847 -168.433)"/><path class="c" d="M82,209.015a.23.23,0,0,1,.17.278l-.386,1.388a.221.221,0,0,1-.277.154.23.23,0,0,1-.17-.278l.386-1.388a.221.221,0,0,1,.278-.154Z" transform="translate(-68.434 -175.814)"/><path class="d" d="M81.893,208.923a.234.234,0,0,1,.17.293l-.386,1.388a.246.246,0,0,1-.293.17.234.234,0,0,1-.17-.293l.386-1.388a.239.239,0,0,1,.293-.17Zm-.509,1.8a.215.215,0,0,0,.262-.139l.385-1.388a.2.2,0,0,0-.154-.247.215.215,0,0,0-.262.139l-.386,1.388A.221.221,0,0,0,81.384,210.727Z" transform="translate(-68.322 -175.737)"/><path class="c" d="M72.648,195.267a.221.221,0,0,1,.123.293l-1.234,2.976a.214.214,0,0,1-.293.108.24.24,0,0,1-.124-.293l1.234-2.976a.214.214,0,0,1,.293-.108Z" transform="translate(-59.833 -164.241)"/><path class="d" d="M72.485,195.172a.24.24,0,0,1,.139.308l-1.234,2.976a.245.245,0,0,1-.324.123.24.24,0,0,1-.139-.308l1.234-2.976A.242.242,0,0,1,72.485,195.172Zm-1.4,3.377a.209.209,0,0,0,.278-.108l1.234-2.976a.2.2,0,0,0-.123-.262.209.209,0,0,0-.278.108l-1.234,2.976A.22.22,0,0,0,71.082,198.55Z" transform="translate(-59.67 -164.161)"/><path class="c" d="M62.571,201.451a.232.232,0,0,1,.108.293l-.648,1.28a.226.226,0,0,1-.308.092.232.232,0,0,1-.108-.293l.648-1.28A.225.225,0,0,1,62.571,201.451Z" transform="translate(-51.838 -169.437)"/><path class="d" d="M62.441,201.357a.236.236,0,0,1,.108.324l-.648,1.28a.241.241,0,0,1-.432-.216l.648-1.28A.236.236,0,0,1,62.441,201.357Zm-.848,1.681a.2.2,0,0,0,.277-.093l.648-1.28a.228.228,0,0,0-.092-.278.2.2,0,0,0-.278.092l-.648,1.28a.228.228,0,0,0,.093.278Z" transform="translate(-51.708 -169.358)"/><path class="c" d="M54.474,187.033a.213.213,0,0,1,.062.308l-1.789,2.668a.221.221,0,0,1-.308.062.213.213,0,0,1-.062-.309l1.789-2.668a.209.209,0,0,1,.308-.062Z" transform="translate(-44.05 -157.302)"/><path class="d" d="M54.371,186.936a.267.267,0,0,1,.077.339l-1.789,2.668a.244.244,0,0,1-.339.062.267.267,0,0,1-.077-.339L54.032,187a.246.246,0,0,1,.339-.062Zm-2.035,3.038a.216.216,0,0,0,.293-.046l1.789-2.668a.2.2,0,0,0-.062-.278.216.216,0,0,0-.293.046l-1.789,2.652a.219.219,0,0,0,.062.293Z" transform="translate(-43.947 -157.22)"/><path class="c" d="M45.05,190.583a.222.222,0,0,1,.046.308l-.894,1.126a.22.22,0,0,1-.308.031.222.222,0,0,1-.046-.308l.894-1.126A.22.22,0,0,1,45.05,190.583Z" transform="translate(-36.878 -160.281)"/><path class="d" d="M44.961,190.426a.243.243,0,0,1,.046.339l-.894,1.126a.229.229,0,0,1-.339.031.244.244,0,0,1-.046-.339l.894-1.126A.229.229,0,0,1,44.961,190.426ZM43.8,191.891a.2.2,0,0,0,.293-.031l.894-1.126a.218.218,0,0,0-.046-.293.2.2,0,0,0-.293.031l-.894,1.126a.216.216,0,0,0,.046.293Z" transform="translate(-36.772 -160.139)"/><path class="c" d="M38.582,175.946a.206.206,0,0,1,0,.308L36.3,178.521a.218.218,0,0,1-.308-.308l2.267-2.267A.224.224,0,0,1,38.582,175.946Z" transform="translate(-30.255 -147.957)"/><path class="d" d="M38.486,175.849a.242.242,0,0,1,0,.339L36.2,178.456a.24.24,0,0,1-.339-.339l2.282-2.267A.242.242,0,0,1,38.486,175.849ZM35.88,178.44a.214.214,0,0,0,.293,0l2.282-2.267a.207.207,0,1,0-.293-.293l-2.282,2.267a.214.214,0,0,0,0,.293Z" transform="translate(-30.144 -147.876)"/><path class="c" d="M30.282,176.664a.219.219,0,0,1-.015.308l-1.095.925a.224.224,0,0,1-.293-.339l1.095-.925A.22.22,0,0,1,30.282,176.664Z" transform="translate(-24.268 -148.551)"/><path class="d" d="M30.184,176.507a.241.241,0,0,1-.015.339l-1.095.925a.231.231,0,0,1-.339-.031.241.241,0,0,1,.015-.339l1.1-.925a.231.231,0,0,1,.339.031Zm-1.419,1.218a.216.216,0,0,0,.293.031l1.1-.925a.213.213,0,0,0-.277-.324l-1.1.925a.2.2,0,0,0-.015.293Z" transform="translate(-24.154 -148.41)"/><path class="c" d="M25.593,162.642a.209.209,0,0,1-.062.309l-2.683,1.789a.236.236,0,0,1-.308-.062.209.209,0,0,1,.062-.309l2.683-1.789a.243.243,0,0,1,.308.062Z" transform="translate(-18.962 -136.751)"/><path class="d" d="M25.527,162.508a.247.247,0,0,1-.062.339l-2.683,1.789a.237.237,0,0,1-.339-.077.246.246,0,0,1,.062-.339l2.683-1.789a.237.237,0,0,1,.339.077Zm-3.053,2.02a.2.2,0,0,0,.277.062l2.683-1.789a.212.212,0,0,0-.231-.355l-2.683,1.789A.218.218,0,0,0,22.474,164.528Z" transform="translate(-18.88 -136.617)"/><path class="c" d="M18.712,160.468a.225.225,0,0,1-.077.309l-1.249.709a.23.23,0,0,1-.308-.092.225.225,0,0,1,.077-.309l1.249-.709a.23.23,0,0,1,.308.092Z" transform="translate(-14.379 -134.901)"/><path class="d" d="M18.728,160.371a.24.24,0,0,1-.077.324L17.4,161.4a.248.248,0,0,1-.324-.092.239.239,0,0,1,.077-.324l1.249-.709a.248.248,0,0,1,.324.092Zm-1.635.925a.193.193,0,0,0,.278.077l1.249-.709a.222.222,0,0,0,.077-.278.193.193,0,0,0-.278-.077l-1.249.709a.212.212,0,0,0-.077.278Z" transform="translate(-14.379 -134.819)"/><path class="c" d="M15.99,147.475a.216.216,0,0,1-.123.293L12.891,149a.234.234,0,0,1-.293-.123.216.216,0,0,1,.123-.293l2.976-1.234A.221.221,0,0,1,15.99,147.475Z" transform="translate(-10.624 -123.958)"/><path class="d" d="M16.006,147.307a.256.256,0,0,1-.123.324l-2.976,1.234a.24.24,0,0,1-.308-.139.255.255,0,0,1,.123-.324l2.976-1.234a.24.24,0,0,1,.308.139Zm-3.377,1.4a.219.219,0,0,0,.262.123l2.976-1.234a.209.209,0,0,0,.108-.277.219.219,0,0,0-.262-.123l-2.976,1.234a.209.209,0,0,0-.108.278Z" transform="translate(-10.624 -123.806)"/><path class="c" d="M10.9,142.561a.223.223,0,0,1-.139.293L9.4,143.3a.219.219,0,0,1-.278-.139.223.223,0,0,1,.139-.293l1.357-.447A.212.212,0,0,1,10.9,142.561Z" transform="translate(-7.703 -119.815)"/><path class="d" d="M10.749,142.422a.236.236,0,0,1-.154.309l-1.357.447a.248.248,0,0,1-.308-.154.235.235,0,0,1,.154-.308l1.357-.447a.262.262,0,0,1,.308.154Zm-1.789.586a.215.215,0,0,0,.262.139l1.357-.447a.206.206,0,0,0,.123-.262.215.215,0,0,0-.262-.139l-1.357.447A.213.213,0,0,0,8.96,143.008Z" transform="translate(-7.541 -119.692)"/><path class="c" d="M10.048,130.859a.208.208,0,0,1-.17.262l-3.161.617a.225.225,0,0,1-.262-.185.208.208,0,0,1,.17-.262l3.161-.617a.228.228,0,0,1,.262.185Z" transform="translate(-5.468 -109.948)"/><path class="d" d="M10.083,130.757a.248.248,0,0,1-.185.293l-3.161.617a.239.239,0,0,1-.277-.2.248.248,0,0,1,.185-.293l3.161-.617A.239.239,0,0,1,10.083,130.757Zm-3.593.694a.207.207,0,0,0,.231.17L9.883,131a.2.2,0,0,0,.154-.247.207.207,0,0,0-.231-.17l-3.161.617a.208.208,0,0,0-.154.247Z" transform="translate(-5.472 -109.846)"/><path class="c" d="M6.878,123.32a.214.214,0,0,1-.185.247l-1.419.17a.224.224,0,0,1-.247-.2.213.213,0,0,1,.185-.247l1.419-.17A.234.234,0,0,1,6.878,123.32Z" transform="translate(-4.272 -103.596)"/><path class="d" d="M6.813,123.238a.246.246,0,0,1-.2.277l-1.419.17a.24.24,0,0,1-.262-.216.246.246,0,0,1,.2-.278l1.419-.17a.24.24,0,0,1,.262.216Zm-1.866.216a.219.219,0,0,0,.231.185l1.419-.17a.207.207,0,0,0,.17-.231.219.219,0,0,0-.231-.185l-1.419.17A.207.207,0,0,0,4.947,123.454Z" transform="translate(-4.192 -103.515)"/><path class="c" d="M8.209,113.768a.224.224,0,0,1-.216.231H4.77a.232.232,0,0,1,0-.463H7.993a.224.224,0,0,1,.216.231Z" transform="translate(-3.875 -95.541)"/><path class="d" d="M8.143,113.687a.241.241,0,0,1-.231.247H4.688a.247.247,0,0,1,0-.493H7.911a.241.241,0,0,1,.231.247Zm-3.655-.015a.218.218,0,0,0,.2.216H7.911a.208.208,0,0,0,.2-.216.218.218,0,0,0-.2-.216H4.688a.23.23,0,0,0-.2.216Z" transform="translate(-3.794 -95.459)"/><path class="e" d="M6.894,103.333a.235.235,0,0,1-.231.216l-1.434-.108a.225.225,0,0,1-.2-.247.234.234,0,0,1,.231-.216l1.434.108A.25.25,0,0,1,6.894,103.333Z" transform="translate(-4.273 -86.663)"/><path class="d" d="M6.83,103.251a.25.25,0,0,1-.247.231l-1.434-.108a.242.242,0,0,1-.216-.262.25.25,0,0,1,.247-.231l1.434.108a.265.265,0,0,1,.216.262Zm-1.881-.139a.2.2,0,0,0,.185.216l1.434.108a.217.217,0,0,0,.216-.2.2.2,0,0,0-.185-.216l-1.434-.108a.23.23,0,0,0-.216.2Z" transform="translate(-4.193 -86.581)"/><path class="c" d="M10.241,93.318a.237.237,0,0,1-.262.185l-3.161-.648a.215.215,0,0,1-.17-.262.237.237,0,0,1,.262-.185l3.161.632a.258.258,0,0,1,.17.277Z" transform="translate(-5.63 -77.774)"/><path class="d" d="M10.18,93.237a.252.252,0,0,1-.278.2l-3.161-.632a.248.248,0,0,1-.185-.293.251.251,0,0,1,.277-.2L10,92.944a.261.261,0,0,1,.185.293Zm-3.593-.725a.221.221,0,0,0,.154.247l3.161.632a.218.218,0,0,0,.247-.17A.221.221,0,0,0,10,92.975l-3.161-.632a.223.223,0,0,0-.247.17Z" transform="translate(-5.554 -77.693)"/><path class="c" d="M10.885,82.973a.23.23,0,0,1-.278.17l-1.388-.386a.221.221,0,0,1-.154-.278.23.23,0,0,1,.278-.17l1.388.386a.221.221,0,0,1,.154.277Z" transform="translate(-7.662 -69.279)"/><path class="d" d="M10.824,82.861a.234.234,0,0,1-.293.17l-1.388-.386a.246.246,0,0,1-.17-.293.234.234,0,0,1,.293-.17l1.388.386a.238.238,0,0,1,.17.293Zm-1.8-.509a.214.214,0,0,0,.139.262L10.546,83a.2.2,0,0,0,.247-.154.214.214,0,0,0-.139-.262L9.266,82.2a.221.221,0,0,0-.247.154Z" transform="translate(-7.585 -69.168)"/><path class="c" d="M16.195,73.7a.221.221,0,0,1-.293.123l-2.976-1.234A.234.234,0,0,1,12.8,72.3a.221.221,0,0,1,.293-.123l2.976,1.234a.22.22,0,0,1,.123.293Z" transform="translate(-10.798 -60.749)"/><path class="d" d="M16.2,73.648a.24.24,0,0,1-.308.139l-2.976-1.234a.244.244,0,0,1-.123-.324.24.24,0,0,1,.308-.139l2.976,1.234A.256.256,0,0,1,16.2,73.648Zm-3.377-1.4a.209.209,0,0,0,.108.277l2.976,1.234a.2.2,0,0,0,.262-.123.209.209,0,0,0-.108-.277l-2.976-1.234a.206.206,0,0,0-.262.123Z" transform="translate(-10.787 -60.679)"/><path class="c" d="M18.957,63.637a.232.232,0,0,1-.293.108l-1.28-.648a.221.221,0,0,1-.092-.308.232.232,0,0,1,.293-.108l1.28.648A.229.229,0,0,1,18.957,63.637Z" transform="translate(-14.562 -52.765)"/><path class="d" d="M18.812,63.6a.236.236,0,0,1-.324.108l-1.28-.648a.241.241,0,1,1,.216-.432l1.28.648A.232.232,0,0,1,18.812,63.6Zm-1.666-.848a.2.2,0,0,0,.093.278l1.28.648a.228.228,0,0,0,.278-.093.2.2,0,0,0-.092-.278l-1.3-.647a.19.19,0,0,0-.262.092Z" transform="translate(-14.401 -52.715)"/><path class="c" d="M25.9,55.718a.211.211,0,0,1-.308.062l-2.668-1.773a.221.221,0,0,1-.062-.308.209.209,0,0,1,.308-.062l2.683,1.789a.2.2,0,0,1,.046.293Z" transform="translate(-19.242 -45.139)"/><path class="d" d="M25.8,55.631a.266.266,0,0,1-.339.077l-2.668-1.789a.244.244,0,0,1-.062-.339.266.266,0,0,1,.339-.077l2.668,1.789A.233.233,0,0,1,25.8,55.631ZM22.764,53.6a.216.216,0,0,0,.046.293l2.683,1.789a.2.2,0,0,0,.278-.062.216.216,0,0,0-.046-.293l-2.683-1.789a.2.2,0,0,0-.278.062Z" transform="translate(-19.125 -45.037)"/><path class="c" d="M30.557,46.391a.222.222,0,0,1-.308.046l-1.126-.879a.22.22,0,0,1-.031-.308A.222.222,0,0,1,29.4,45.2l1.126.879A.22.22,0,0,1,30.557,46.391Z" transform="translate(-24.466 -38.048)"/><path class="d" d="M30.416,46.3a.243.243,0,0,1-.339.046l-1.126-.879a.242.242,0,0,1,.293-.385l1.126.879a.243.243,0,0,1,.046.339Zm-1.48-1.156a.2.2,0,0,0,.031.293l1.126.879a.218.218,0,0,0,.293-.046.2.2,0,0,0-.031-.293L29.229,45.1a.218.218,0,0,0-.293.046Z" transform="translate(-24.31 -37.944)"/><path class="c" d="M38.889,39.894a.206.206,0,0,1-.308,0l-2.3-2.267a.219.219,0,0,1,0-.308.206.206,0,0,1,.308,0l2.282,2.267a.22.22,0,0,1,.015.308Z" transform="translate(-30.5 -31.397)"/><path class="d" d="M38.776,39.826a.242.242,0,0,1-.339,0l-2.283-2.267a.24.24,0,0,1,.339-.339l2.282,2.267a.218.218,0,0,1,0,.339Zm-2.59-2.576a.214.214,0,0,0,0,.293l2.282,2.267a.207.207,0,0,0,.293-.293l-2.282-2.282a.2.2,0,0,0-.293.015Z" transform="translate(-30.387 -31.313)"/><path class="c" d="M45.26,31.72a.219.219,0,0,1-.308-.015l-.941-1.079a.224.224,0,0,1,.339-.293l.941,1.08A.222.222,0,0,1,45.26,31.72Z" transform="translate(-37.01 -25.521)"/><path class="d" d="M45.134,31.524a.242.242,0,0,1-.339-.015l-.941-1.079a.231.231,0,0,1,.031-.339.242.242,0,0,1,.339.015l.941,1.079A.242.242,0,0,1,45.134,31.524Zm-1.234-1.4a.215.215,0,0,0-.031.293l.941,1.079a.213.213,0,0,0,.324-.277l-.941-1.08A.2.2,0,0,0,43.9,30.121Z" transform="translate(-36.869 -25.325)"/><path class="c" d="M54.74,26.837a.209.209,0,0,1-.308-.062l-1.8-2.668a.235.235,0,0,1,.062-.308.209.209,0,0,1,.308.062l1.789,2.668a.218.218,0,0,1-.046.308Z" transform="translate(-44.269 -20.052)"/><path class="d" d="M54.606,26.771a.247.247,0,0,1-.339-.062l-1.789-2.668a.237.237,0,0,1,.077-.339.247.247,0,0,1,.339.062l1.789,2.668A.235.235,0,0,1,54.606,26.771Zm-2.036-3.038a.2.2,0,0,0-.062.278L54.3,26.679a.213.213,0,0,0,.293.046.2.2,0,0,0,.062-.277l-1.789-2.652a.22.22,0,0,0-.293-.062Z" transform="translate(-44.136 -19.97)"/><path class="c" d="M62.581,19.972a.225.225,0,0,1-.308-.077l-.709-1.249a.23.23,0,0,1,.093-.308.224.224,0,0,1,.308.077l.709,1.249a.245.245,0,0,1-.092.308Z" transform="translate(-51.787 -15.469)"/><path class="d" d="M62.483,19.987a.239.239,0,0,1-.324-.077l-.709-1.249a.234.234,0,0,1,.093-.324.239.239,0,0,1,.324.077l.709,1.249a.238.238,0,0,1-.092.324Zm-.925-1.635a.206.206,0,0,0-.077.278l.709,1.249a.221.221,0,0,0,.277.077.206.206,0,0,0,.077-.278l-.709-1.249A.2.2,0,0,0,61.558,18.353Z" transform="translate(-51.688 -15.469)"/><path class="c" d="M72.76,17.232a.221.221,0,0,1-.293-.108l-1.249-2.976a.234.234,0,0,1,.123-.293.221.221,0,0,1,.293.108l1.249,2.976a.234.234,0,0,1-.123.293Z" transform="translate(-59.915 -11.711)"/><path class="d" d="M72.6,17.168a.256.256,0,0,1-.324-.124l-1.249-2.976a.24.24,0,0,1,.139-.308.256.256,0,0,1,.324.123l1.249,2.976a.251.251,0,0,1-.139.308Zm-1.4-3.377a.2.2,0,0,0-.108.262l1.249,2.976a.209.209,0,0,0,.277.108.2.2,0,0,0,.108-.262L71.471,13.9a.214.214,0,0,0-.278-.108Z" transform="translate(-59.752 -11.632)"/><path class="c" d="M81.752,11.994a.223.223,0,0,1-.293-.139L81.012,10.5a.218.218,0,0,1,.139-.277.242.242,0,0,1,.293.139l.447,1.357a.212.212,0,0,1-.139.277Z" transform="translate(-68.151 -8.662)"/><path class="d" d="M81.768,11.895a.24.24,0,0,1-.308-.139L81.013,10.4a.248.248,0,0,1,.154-.308.24.24,0,0,1,.308.139l.447,1.357A.262.262,0,0,1,81.768,11.895Zm-.6-1.773a.214.214,0,0,0-.139.262l.447,1.357a.206.206,0,0,0,.262.123.214.214,0,0,0,.139-.262l-.447-1.357a.195.195,0,0,0-.262-.123Z" transform="translate(-68.152 -8.548)"/><path class="c" d="M92.328,11.21a.208.208,0,0,1-.262-.17l-.648-3.161a.225.225,0,0,1,.185-.262.208.208,0,0,1,.262.17l.648,3.161A.247.247,0,0,1,92.328,11.21Z" transform="translate(-76.907 -6.476)"/><path class="d" d="M92.165,11.148a.248.248,0,0,1-.293-.185L91.224,7.8a.232.232,0,0,1,.185-.278.248.248,0,0,1,.293.185l.648,3.161A.229.229,0,0,1,92.165,11.148ZM91.44,7.555a.214.214,0,0,0-.17.247l.648,3.161a.2.2,0,0,0,.247.154.214.214,0,0,0,.17-.247l-.648-3.161a.221.221,0,0,0-.247-.154Z" transform="translate(-76.744 -6.399)"/><path class="c" d="M102.157,7.846a.237.237,0,0,1-.262-.185l-.185-1.419a.225.225,0,0,1,.2-.247.237.237,0,0,1,.262.185l.185,1.419A.225.225,0,0,1,102.157,7.846Z" transform="translate(-85.565 -5.117)"/><path class="d" d="M102.076,7.782a.246.246,0,0,1-.278-.2l-.185-1.419a.24.24,0,0,1,.216-.262.246.246,0,0,1,.278.2l.185,1.419A.24.24,0,0,1,102.076,7.782Zm-.231-1.85a.219.219,0,0,0-.185.231l.185,1.419a.207.207,0,0,0,.231.17.219.219,0,0,0,.185-.231L102.076,6.1a.207.207,0,0,0-.231-.17Z" transform="translate(-85.483 -5.037)"/><ellipse class="f" cx="18.258" cy="18.258" rx="18.258" ry="18.258" transform="translate(0 0)"/></g><g class="l" transform="matrix(1, 0, 0, 1, -0.5, -0.5)"><path class="g" d="M77.618,51.15,62.891,60.588h-.015V60.6l-.015.015L53.67,75.777,67.179,64.905l.015-.015v-.015L77.619,51.15Z" transform="translate(-44.62 -42.51)"/></g><path class="h" d="M125.479,45.628,110.922,55.975l4.318,4.287,10.239-14.634" transform="translate(-93.254 -38.365)"/><path class="i" d="M111.019,55.945l2.174,2.143,12.367-12.46Z" transform="translate(-93.336 -38.365)"/><path class="j" d="M56.933,110.437l4.318,4.287L46.694,125.071l10.239-14.634Z" transform="translate(-39.25 -92.857)"/><path class="k" d="M46.694,125.071l12.414-12.491-2.174-2.144Z" transform="translate(-39.25 -92.857)"/></g></svg>